<svg xmlns="http://www.w3.org/2000/svg" xml:space="preserve" x="0" y="0" version="1.1" viewBox="0 0 1164.8 556.8"><title>Xperience House</title><style>.st1{fill:#4eb7e5}.st2{fill:#78cbed}.st3{fill:#c1e6f7}.st5{fill-rule:evenodd;clip-rule:evenodd;fill:#096053}.st6{fill:#f1ad1c}.st7{fill:#fff}</style><path d="m513.4 113.9 11.5 12 37.2-50.3 16.8 21.6 19.9-27.8c-82.5-2.5-166.1 8.1-249.6 32-28.8 29.8-51.8 65.9-66.6 106.9 65.9-24.5 132.1-40.6 197.9-48.6zM642 125.4l17.7-27 46.6 66.6c48.3 8.2 95.9 20.9 142.8 38.3-15.4-40.1-39.3-76.7-70-107.1-58.6-15.8-118.3-24.7-178.5-26.7z" class="st1"/><path d="m739.6 212.4 10.6-2.1 31.4 56q19.95 5.4 39.9 12c-6.5-12.3 8.3-11 4.5-13.6-2.8-1.9-1.8-4.3.2-6.9 1.3-1.7 2-3 1.1-5-.6-1.4-1.2-2.5-1.9-3.8-.9-1.6-.1-3.9.1-5.8.2-2.5 2.9-5.7 3.8-8.3.8-2.3 0-3.3.1-4.6.1-1.1 1-2.5 3.4-4.2 5.6-4 3.5-1.6 2.2 1.6-.5 1.3 1.1 2.7.9 4.2-.3 1.9-.2 3 1 4.7.9 1.3.5 3.3 2.7 4.1 5.7 1.8 1.7 4.3 2.7 5.5 1.2 1.4 4.4.8 6.5 3 1.2 1.2.6 3.9 2.5 6.4 1.3 1.8 2.2 1.2 2.8 2.5 3.5 7.2-1.8 10.2.7 12.5 10.1 9.2 4.5 16 5.6 21.5l8.4 3.3c-1.7-31.9-8.4-63-19.7-92.3-46.9-17.3-94.6-30.1-142.8-38.3zM291.3 281.4c-2.8-1.9-1.8-4.3.2-6.9 1.3-1.7 2-3 1.1-5-.6-1.4-1.2-2.5-1.9-3.8-.9-1.6-.1-3.9.1-5.8.2-2.5 2.9-5.7 3.8-8.3.8-2.3 0-3.3.1-4.6.1-1.1 1-2.5 3.4-4.2 5.6-4 3.5-1.6 2.2 1.6-.5 1.3 1.1 2.7.9 4.2-.3 1.9-.2 3 1 4.7.9 1.3.5 3.3 2.7 4.1 5.7 1.8 1.7 4.3 2.7 5.5 1.2 1.4 4.4.8 6.5 3 1.2 1.2.6 3.9 2.5 6.4 1.3 1.8 2.2 1.2 2.8 2.5 1 2.1 1.3 3.8 1.2 5.3 23.8-7.7 47.7-14.3 71.5-19.8l41.9-63.5 17.2 3.7 29.3-40.7c-65.8 7.9-132 24.1-197.9 48.6-3.1 8.5-5.8 17.3-8.2 26.2-5.8 21.9-9 43.9-9.8 65.7 7-2.8 14-5.4 21-8-3-9.4 9.2-8.5 5.7-10.9" class="st2"/><path d="M539.4 132.7c4.7-5.7 9.2-11.4 13.6-17.3q1.8 4.2 3.9 8.4c2.2-7.2 3.6-14.7 5.6-22l7.4 10.1c-.2-3-4.7-26.4-6-27.7-2.8 3.7-5.2 7.7-7.8 11.6-3.6 5.4-7.3 10.8-11 16.2-3.3 4.7-6.6 9.5-9.9 14.2-2.8 3.8-5.7 7.6-8.2 11.7 1.2 2 2.4 4 3.5 6.1 3-3.9 5.9-7.6 8.9-11.3M555.8 152.6c9-8.1 17.5-16.6 26.3-24.9 3.3-3.1 6.6-7 10.2-9.6 5.2 8.4 10.3 17.1 15 25.8-2.1-14.3-3.5-28.6-4.1-43 5.2 7 10.6 14.2 16.3 20.7-2.2-6.2-5.7-12.1-8.5-18.2l-7-15.3c-1.2-2.7-2.4-5.7-4-8.2-6.3 7.9-11.8 16.4-17.9 24.5l-37.8 50.2c3.2-.1 6.4-.3 9.6-.4.7-.5 1.3-1 1.9-1.6M653.6 135.3c2.3 3.3 4.5 6.7 6.9 10l.7.9.3-.1c.5-7.7.6-15.3 1.1-23 6.9 8.5 13.9 16.9 21 25.3-3.8-8.5-9.6-16.5-14.4-24.5-2-3.3-6.7-12.4-9-14.8-5.2 7.8-9.8 16.1-14.6 24.2-4.5 7.5-9.3 15-13.3 22.8h4.8c5.7-7 11.4-13.7 16.5-20.8M515.8 139.8c4.2 4.9 8.4 9.8 12.6 14.6-2.1-5.4-11-26.8-14.2-30-5.2 7.6-11.1 14.4-16.7 21.7-3.3 4.3-6.5 8.5-9.8 12.8 3.6-.4 7.1-.8 10.7-1.2 2.2-2.4 4.4-4.7 6.5-7.1.5 2.1 1.1 4.3 1.7 6.4 2-.2 4-.4 6-.5 1-5.6 2-11.2 3.2-16.7" class="st3"/><path d="m544.4 154.6-22.6 30 .1.2c10.6-10.3 21.2-20.7 32.1-30.6-3.2.2-6.4.3-9.6.4M460.9 197.2c7.9-7.5 15.4-15.6 22.9-23.5 4.8-5.3 9.8-10.6 14.6-15.9-3.6.3-7.1.8-10.7 1.2-9.3 12.4-18.4 25-26.8 38.2M512.7 156.5c-2 .2-4 .3-6 .5 1.1 3.8 2.2 7.6 3.7 11.3.8-3.8 1.6-7.8 2.3-11.8M273.1 342.7c-10.1-5.4 11.5-10.6 4.2-14.2-13.8-6.9 7.4-12.3 3.1-18-5.3-6.9 8.7-11.3 6.6-14.9-.7-1.3-1.2-2.4-1.5-3.4-7 2.6-14 5.2-21 8-.6 15.8.1 31.5 1.9 46.9 3.3-1.7 8.5-3.4 6.7-4.4M861.2 294.3c5.5.6 2.4 11 3.8 15.5.8 2.9 2.7 4.2 4.3 5.5.1-6.6 0-13.2-.4-19.8l-8.4-3.3c0 .7.2 1.4.7 2.1M320.1 287.3c11.4 10.4 2.8 17.7 6.4 23.6 5.5.6 2.4 11 3.8 15.5 1.6 5.5 6.9 5.4 6.9 9.9 0 2.8.4 4.5.9 5.7l54-81.8c-23.8 5.5-47.7 12.1-71.5 19.8-.1 3.7-2.3 5.7-.5 7.3M810.1 317.3c2.8-2 5-3.9 1.9-5.5-13.8-6.9 7.4-12.3 3.1-18-5.3-6.9 8.7-11.3 6.6-14.9l-.3-.6c-13.2-4.4-26.5-8.3-39.9-12z" class="st3"/><path d="m598.8 69.5.9-1.3 1 1.3c60.3 1.9 119.9 10.8 178.5 26.7-36.4-36-82.4-63.2-135.5-77.2-109.6-28.8-221 6.3-294.6 82.4C432.7 77.6 516.3 67 598.8 69.5" style="fill:#2ea2d5"/><path d="m659.7 98.4-17.7 27-41.4-55.9-1-1.3-.9 1.3-19.9 27.8L562 75.7 524.8 126l-11.5-12-32.9 45.8-29.3 40.7 97.3 20.9v-8.7l40.6-18.4 44.1 19.1.1 19.8 106.3-20.7-33.2-47.5zm-13.9 34.8c4.8-8.1 9.4-16.3 14.6-24.2 2.3 2.4 7 11.5 9 14.8 4.8 8 10.6 16 14.4 24.5-7.1-8.3-14.1-16.8-21-25.3-.6 7.6-.7 15.3-1.1 23l-.3.1-.7-.9c-2.3-3.3-4.6-6.7-6.9-10-5.1 7.1-10.9 13.8-16.3 20.7h-4.8c3.7-7.7 8.6-15.2 13.1-22.7M535.3 126c3.3-4.7 6.6-9.4 9.9-14.2 3.7-5.4 7.4-10.8 11-16.2 2.6-3.9 5-7.9 7.8-11.6 1.3 1.3 5.8 24.8 6 27.7l-7.4-10.1c-2 7.3-3.4 14.8-5.6 22l-3.9-8.4c-4.4 5.9-9 11.6-13.6 17.3-3 3.6-5.9 7.4-8.8 11-1.1-2.1-2.3-4.1-3.5-6.1 2.4-3.7 5.3-7.5 8.1-11.4M505 150.6c-2.2 2.4-4.3 4.8-6.5 7.1-4.9 5.3-9.8 10.5-14.6 15.9-7.5 8-15 16-22.9 23.5 8.3-13.2 17.5-25.8 26.8-38.2 3.2-4.3 6.5-8.6 9.8-12.8 5.6-7.3 11.5-14.1 16.7-21.7 3.2 3.2 12.1 24.6 14.2 30-4.3-4.8-8.5-9.7-12.6-14.6-1.2 5.5-2.2 11.1-3.1 16.7-.7 4-1.4 7.9-2.3 11.9-1.4-3.7-2.6-7.5-3.7-11.3-.7-2.2-1.2-4.3-1.8-6.5m16.9 34.3-.1-.2 22.6-30 37.8-50.2c6.1-8 11.6-16.6 17.9-24.5 1.6 2.5 2.7 5.5 4 8.2l7 15.3c2.8 6 6.2 11.9 8.5 18.2-5.8-6.5-11.1-13.7-16.3-20.7.6 14.4 2 28.8 4.1 43-4.7-8.7-9.8-17.3-15-25.8-3.6 2.6-7 6.5-10.2 9.6-8.8 8.3-17.3 16.8-26.3 24.9-.6.5-1.2 1.1-1.8 1.6-11 9.9-21.5 20.3-32.2 30.6" style="fill:#096053"/><path d="M337.2 336.4c0-4.5-5.3-4.5-6.9-9.9-1.3-4.5 1.7-14.9-3.8-15.5-3.6-5.9 5-13.2-6.4-23.6-1.8-1.6.4-3.6.5-7.2.1-1.5-.2-3.2-1.2-5.3-.6-1.3-1.5-.8-2.8-2.5-1.9-2.5-1.3-5.2-2.5-6.4-2.1-2.2-5.4-1.6-6.5-3-1.1-1.2 3-3.7-2.7-5.5-2.3-.7-1.8-2.8-2.7-4.1-1.2-1.7-1.2-2.8-1-4.7.2-1.5-1.4-2.9-.9-4.2 1.3-3.3 3.4-5.7-2.2-1.6-2.4 1.7-3.3 3.1-3.4 4.2-.1 1.3.7 2.3-.1 4.6-.9 2.5-3.6 5.8-3.8 8.3-.2 1.9-1 4.1-.1 5.8.7 1.3 1.3 2.4 1.9 3.8.9 2 .2 3.3-1.1 5-1.9 2.6-3 5-.2 6.9 3.5 2.4-8.6 1.5-5.7 10.8.3 1 .8 2.1 1.5 3.4 2 3.6-11.9 8-6.6 14.9 4.3 5.7-16.9 11.1-3.1 18 7.3 3.6-14.3 8.8-4.2 14.2 1.8 1-3.5 2.7-6.6 4.5-2.4 1.3-3.6 2.7.4 3.8.1 0 .2.1.3.1 1.1.3.4 1.1 0 2.3-.3.9-.5 2.1.5 3.4.8 1.1 2.4 2.3 5.4 3.6 1.7.7-1.5 2-4.2 3.8-2.8 1.9-5 4.6.3 7.9 4.6 2.9-13.5 13.5.4 18.2 1.6.5 4.9-.7 7.4-.3 1.4.2 1.7 4.4 3.2 6.3h5.9c3-1.3 5.8-3.3 6.2-2.8.8 1 3.6 2.2 6.4 2.8h3.6l35.7-54.1c-.6-1.4-.9-3.1-.9-5.9" class="st5"/><path d="m301.6 396.6-.1.8.8-1.2h-3.6c1 .2 2 .4 2.9.4M281.5 397.1c1.4.3 3-.2 4.6-.9h-5.9c.4.5.8.8 1.3.9M878.5 328.8c.4-4.3-6.7 3.5-6.7-9.1 0-2.2-1.2-3.3-2.7-4.4-1.6-1.3-3.4-2.6-4.3-5.5-1.3-4.5 1.7-14.9-3.8-15.5-.4-.7-.7-1.4-.8-2.1-1.1-5.5 4.5-12.3-5.6-21.5-2.5-2.3 2.8-5.2-.7-12.5-.6-1.3-1.5-.8-2.8-2.5-1.9-2.5-1.3-5.2-2.5-6.4-2.1-2.2-5.4-1.6-6.5-3-1.1-1.2 3-3.7-2.7-5.5-2.3-.7-1.8-2.8-2.7-4.1-1.2-1.7-1.2-2.8-1-4.7.2-1.5-1.4-2.9-.9-4.2 1.3-3.3 3.4-5.7-2.2-1.6-2.4 1.7-3.3 3.1-3.4 4.2-.1 1.3.7 2.3-.1 4.6-.9 2.5-3.6 5.8-3.8 8.3-.2 1.9-1 4.1-.1 5.8.7 1.3 1.3 2.4 1.9 3.8.9 2 .2 3.3-1.1 5-1.9 2.6-3 5-.2 6.9 3.8 2.6-10.9 1.3-4.5 13.6l.3.6c2 3.6-11.9 8-6.6 14.9 4.3 5.7-16.9 11.1-3.1 18 3.1 1.6.9 3.4-1.9 5.5l35 62.5c2.2.9 4.4 1.8 4.5 1.9 3.4.2 4.8-4 7.4-3.4 3 .7 11.7 0 12.8-.5 4.8-2.6-5-9.4-.2-10.1 9.6-1.3-7.3-5.3 5.3-11.3 6.7-3.1-4.1-8.5-1.1-9.9 2.5-1.1.3-5.7.8-9.6.7-4.5 3.8-5.5 4-8.2" class="st5"/><path d="m117.2 396.2-28.7 48.3 13.9 21.8 42.5-70.1z" class="st6"/><path d="M134.2 427.5h35.1c19.1 0 35.1 14.4 35.1 32.6 0 17.9-15.6 33-35.1 33h-10.4v27.4h-24.7zm46.3 32.7c0-5.6-4.7-9.9-11.3-9.9h-10.4v20l10.4.1c6.7 0 11.3-4.5 11.3-10.2M235.7 450.4v13h29.5V484h-29.5v13.3h35.8v23.1h-60.2v-92.9h60.2v22.9zM331.3 520.4 306.4 480v40.3h-24.7l-.1-92.9h35.3c20.1 0 34.4 13.5 34.4 30.2 0 11.6-7 21.3-16.1 25.4l24.9 37.3h-28.8zm-25-52.1 10.1.1c5.2.1 10-3.6 10-9.3 0-5.8-4.8-9.3-10-9.3h-10.1zM365.5 427.5h24.7v92.9h-24.7zM427.1 450.4v13h29.5V484h-29.5v13.3h35.8v23.1h-60.2v-92.9h60.2v22.9zM553.4 427.4v93.9h-7.8L497.8 475v45.4h-24.7v-93.9h8l47.6 46.1v-45.3h24.7zM561.9 473.9c0-27.5 22.2-48.6 51.2-48.6 12 .2 24.8 5.4 34.3 14.1l-14.2 18.2c-5.7-5.2-13.3-8.6-20.1-8.6-14.3 0-26.2 10.9-26.2 25.1 0 14.4 12.4 25 25.7 25 7.8 0 14.8-3.7 20.7-9l14.1 18.7c-8.9 8.1-20.7 13.7-34.8 13.7-26.2 0-50.7-19.4-50.7-48.6M678.8 450.4v13h29.5V484h-29.5v13.3h35.8v23.1h-60.2v-92.9h60.2v22.9zM794.5 427.5v92.9h-10.4v-41.3H737v41.3h-10.5v-92.9H737v41.2h47.1v-41.2zM805.6 474c0-26.3 21.5-47.8 47.7-47.8 26.3 0 47.8 21.5 47.8 47.8 0 26.2-21.5 47.6-47.8 47.6-26.2 0-47.7-21.4-47.7-47.6m84.9-.1c0-20.5-16.7-37.2-37.2-37.2-20.4 0-37 16.8-37 37.2s16.7 37 37 37c20.5.1 37.2-16.6 37.2-37M911.3 484.3v-56.8h10.5v56.8c0 15.6 10.1 27 23.9 27s23.9-11.4 23.9-27v-56.8h10.5v56.8c0 21.7-14.6 37.5-34.4 37.5-19.7 0-34.4-15.8-34.4-37.5M989.3 503.8l8.1-5.9c4.2 8 13.7 13.3 23.6 13.3 12.2 0 22.1-6.6 22.1-15.7 0-10.4-13.3-15.4-25.2-19.9-11.4-4.4-24.1-10-24.1-24.4 0-14.3 12.8-24.9 29.2-24.9 13.8 0 23.2 7.5 26.6 16.7l-7.9 5.3c-3-7-10.5-11.7-18.8-11.7-10 0-18.5 6.6-18.5 14.9 0 9 10.2 12.3 22.2 16.9 13.9 5.6 27.1 12.1 27.1 27 0 16-14.8 26.4-32.7 26.4-15.4-.2-27.3-8.1-31.7-18M1074.2 437.8v29.4h38.2v10.5h-38.2V510h44.1v10.4h-54.6v-92.9h54.6v10.3zM441.554 370.853l21.6-.098.101 22.4-21.6.098zM441.454 341.652l21.6-.097.101 22.4-21.6.097zM470.355 370.753l21.6-.098.1 22.4-21.6.098zM470.255 341.552l21.6-.097.1 22.4-21.6.097zM690.257 369.752l21.6-.097.1 22.4-21.6.097zM690.157 340.552l21.6-.097.1 22.4-21.6.097zM719.057 369.553l21.6-.098.1 22.4-21.6.098zM718.957 340.452l21.6-.097.101 22.4-21.6.097zM70.2 427.5H42l27.9 44.7-29.5 48.2h28.5L84.4 493l15.6 27.4h28.4z" class="st7"/><path d="M742.2 227.6 618 251.8l-.1-28.4-28.7-12.4-25.4 11.5.1 17.8L441 213.9 320.7 396.2H126.9l-11.2 5.6h262.7l92.3-142.7 81.4 142.7 73.3-.3L716 254.7l85.1 147.1h38.8z" class="st6"/><path d="M819.8 396.2h298.9l.3 5.6H837.4z" class="st6"/></svg>
